/* XPM */
static char *_e9dece2278c4ef88ec63dc07e7be1cdY1i4Su7RHb3csmMX[] = {
/* columns rows colors chars-per-pixel */
"32 32 190 2 ",
"   c None",
".  c #050D0E",
"X  c #0A0B0E",
"o  c #080608",
"O  c #0A120F",
"+  c #060C13",
"@  c #0B0E13",
"#  c #060C19",
"$  c #0C0E1A",
"%  c #100F19",
"&  c #0C1115",
"*  c #0E111A",
"=  c #12151D",
"-  c #181B1A",
";  c #26291D",
":  c #2E3017",
">  c #151620",
",  c #1B1423",
"<  c #151921",
"1  c #191229",
"2  c #1D1A35",
"3  c #1D1D3A",
"4  c #151D37",
"5  c #26142B",
"6  c #251534",
"7  c #25163A",
"8  c #241A3D",
"9  c #2C193D",
"0  c #2B1739",
"q  c #31163D",
"w  c #311730",
"e  c #1A2729",
"r  c #192436",
"t  c #17263F",
"y  c #1B2338",
"u  c #292922",
"i  c #302F25",
"p  c #25382E",
"a  c #3B3C25",
"s  c #4F2334",
"d  c #4F3E28",
"f  c #64372F",
"g  c #5A512A",
"h  c #50482E",
"j  c #6A582D",
"k  c #7A5C2F",
"l  c #675F30",
"z  c #7C4833",
"x  c #7E6F32",
"c  c #251A42",
"v  c #271640",
"b  c #2D1E57",
"n  c #1A2B44",
"m  c #1C3047",
"M  c #1D3150",
"N  c #2A2459",
"B  c #243C53",
"V  c #213967",
"C  c #372778",
"Z  c #2C2F79",
"A  c #511E40",
"S  c #4E1E56",
"D  c #5C2043",
"F  c #692B41",
"G  c #531C74",
"H  c #4C1A6B",
"J  c #56216D",
"K  c #4B217D",
"L  c #44237F",
"P  c #542175",
"I  c #582271",
"U  c #472064",
"Y  c #6E3176",
"T  c #6E246A",
"R  c #2B5256",
"E  c #34635F",
"W  c #3A7054",
"Q  c #2A4F60",
"!  c #2B546D",
"~  c #2B5065",
"^  c #31546D",
"/  c #2B5572",
"(  c #2B5478",
")  c #294F74",
"_  c #3F7B6F",
"`  c #5E7C4D",
"'  c #597D50",
"]  c #9E5D38",
"[  c #817233",
"{  c #B67A3B",
"}  c #A57937",
"|  c #B8554C",
" . c #C34E5C",
".. c #CF407A",
"X. c #608350",
"o. c #6A955B",
"O. c #7E8C4A",
"+. c #4B8666",
"@. c #46897B",
"#. c #51A175",
"$. c #91853A",
"%. c #BA903C",
"&. c #BDBF53",
"*. c #BAA445",
"=. c #DCBB45",
"-. c #D2AA42",
";. c #99D377",
":. c #CDD05B",
">. c #D6C04A",
",. c #F6D44F",
"<. c #392D88",
"1. c #452382",
"2. c #482180",
"3. c #6F2681",
"4. c #7F2D9F",
"5. c #72328D",
"6. c #5C29B4",
"7. c #552AA6",
"8. c #6C25AD",
"9. c #7629A5",
"0. c #7A28A5",
"q. c #6325B2",
"w. c #6D38BF",
"e. c #7A23B9",
"r. c #2E5D96",
"t. c #2A438D",
"y. c #32669E",
"u. c #3C708B",
"i. c #344FB0",
"p. c #3568AA",
"a. c #3770A1",
"s. c #387CBC",
"d. c #625DBF",
"f. c #5A6ABB",
"g. c #5375B6",
"h. c #5B3DDA",
"j. c #622FC1",
"k. c #6735DA",
"l. c #7B2BD3",
"z. c #613FE0",
"x. c #7336EC",
"c. c #7A3BFA",
"v. c #345FC1",
"b. c #3B76D8",
"n. c #386CD1",
"m. c #5149DC",
"M. c #5742DB",
"N. c #435BDB",
"B. c #4A4EDA",
"V. c #7F49C2",
"C. c #7254C2",
"Z. c #4558E0",
"A. c #7F44E4",
"S. c #6F4CF3",
"D. c #812C9B",
"F. c #962E9B",
"G. c #9622AE",
"H. c #9332AF",
"J. c #A430B3",
"K. c #C1318B",
"L. c #C434B6",
"P. c #AA41AE",
"I. c #9D3EC6",
"U. c #AA37C6",
"Y. c #A439C6",
"T. c #AC38CB",
"R. c #B137C8",
"E. c #B836D1",
"W. c #A23DE5",
"Q. c #C13BDA",
"!. c #8B45C3",
"~. c #9640C4",
"^. c #66B98C",
"/. c #4A8DB2",
"(. c #5290BB",
"). c #498AB0",
"_. c #4CA3BE",
"`. c #4FA8AC",
"'. c #6FC08D",
"]. c #63C5B5",
"[. c #3E84DB",
"{. c #418BCE",
"}. c #4495CD",
"|. c #499CCC",
" X c #4797C8",
".X c #408ADE",
"XX c #4BA0CD",
"oX c #54A7C4",
"OX c #418BE3",
"+X c #4A94E2",
/* pixels */
"                                                                ",
"                                                                ",
"                                                                ",
"                                                                ",
"        E.D.J J I I G P P G K K K K K K K 2.2.2.2.L 7.x.        ",
"      Q.3.. , , . O : O . - ; & & & & & & & & & & & & 1.c.      ",
"      R.q @ F.P.1 g ,.[ # o.;.p $ = = = = = = = = = = 8 k.      ",
"      U.0 . Y 5.% a *.g + W #.e & = = = = = = = = = = 2 k.      ",
"      U.S 5 6 6 6 6 6 6 7 7 7 7 7 8 8 8 8 8 8 8 c c 8 b k.      ",
"      T.H.D.D.4.0.0.9.9.9.8.8.8.8.q.q.q.q.q.6.6.6.6.6.j.x.      ",
"      Y.q @ @ $ $ * * * * # $ = = $ $ * = = = = = = = 2 k.      ",
"      Y.9 + @ @ & & & + - f ] { { } j ; # = = = = = = 2 k.      ",
"      Y.9 @ & * * * @ s  .| z d h k %.-.j * = = = > = 2 h.      ",
"      I.9 @ * * * & D ..F = # # # # = j =.x * > > < = 3 M.      ",
"      I.9 @ * * & w K.A + * = = = = = # d =.g * > < = 3 m.      ",
"      ~.9 @ * * * 5 5 > , = = = = = = < < u i = > < = 3 B.      ",
"      !.9 @ & & q F.& S L.T & = = # l >.$.$ O.h * > = y N.      ",
"      !.8 @ & . H G.& , J.R.0 * * u &.:.a # o.' $ > = y N.      ",
"      V.8 @ @ . G 0.& & U W.5.& $ ` ;.X.* $ +.+.= > = y n.      ",
"      C.8 @ & . H e.& & = w.!.c p '.^.e = = @._ = > = y b.      ",
"      C.8 @ & @ 8 l.1 & & N S.N @.].E @ = < `.R = > = r b.      ",
"      d.3 @ & & $ j.C X = > C B oX).< = @ Q _.e = < = r b.      ",
"      f.y @ & & @ b z.3 X * & p.+XB @ @ r |./ = > < = r [.      ",
"      f.y @ & * * @ <.m.N & X n M @ @ m {.a.= = = > = r [.      ",
"      g.r @ & * * @ @ Z Z.i.V t t V p.OXr.= = = = = = r [.      ",
"      ).r @ @ @ $ $ & X 4 t.v.n.n.n.r.n & = = = = > = r OX      ",
"      (.^ o X X X X X X o o X # * @ o X @ @ @ @ @ % X ( OX      ",
"        /.u.~ ! ! ! / / / / / / / / / / / / ( ( ( ) y..X        ",
"          u.)./.(. X X|.|.|.XXXX|.|.|.|.}.}.}.{.{.{.s.          ",
"                                                                ",
"                                                                ",
"                                                                "
};
